<svg width="69px" height="71px" viewBox="0 0 69 71" version="1.1" xmlns="http://www.w3.org/2000/svg" xmlns:xlink="http://www.w3.org/1999/xlink">
    <!-- Generator: Sketch 50 (54983) - http://www.bohemiancoding.com/sketch -->
    <title>Page 1</title>
    <desc>Created with Sketch.</desc>
    <defs></defs>
    <g id="Final-Page-Designs" stroke="none" stroke-width="1" fill="none" fill-rule="evenodd">
        <g id="Academics" transform="translate(-1139.000000, -2065.000000)" fill="#0E4980">
            <g id="Group-5" transform="translate(1045.000000, 2065.000000)">
                <g id="Page-1" transform="translate(94.000000, 0.000000)">
                    <path d="M5.99822308,64.5320602 L62.9847923,64.5320602 L62.9847923,22.3959624 L5.99822308,22.3959624 L5.99822308,64.5320602 Z M7.76143846,5.6383609 C7.76143846,7.79184962 7.70889231,9.82789474 7.77364615,11.8612707 C7.87024615,14.8822406 9.68813077,16.2333759 13.4905615,16.2066842 C17.2558385,16.1805263 19.0222385,14.7722707 19.0843385,11.7267444 C19.1220231,9.86099248 19.1337,7.99470677 19.1607692,6.12842105 C19.1623615,6.04407519 19.2037615,5.96026316 19.2897462,5.64743609 L28.6880769,5.64743609 C28.6880769,7.72191729 28.3935,9.88074436 28.7921077,11.9007744 C29.0564308,13.2401654 30.0351692,14.929218 31.1752615,15.5159023 C35.9601462,17.9768797 40.0990846,15.3386692 40.0990846,10.0857368 L40.0990846,5.62501504 L49.8689538,5.62501504 C49.8689538,7.64771429 49.9767,9.74461654 49.8408231,11.8265714 C49.6821231,14.2496466 50.9596846,15.6151955 53.0349923,16.0123684 C54.7127538,16.3337368 56.5656692,16.2926316 58.2381231,15.9312256 C60.0852,15.5319173 61.2486462,14.2181504 61.1578846,12.0561203 C61.0692462,9.94266917 61.1387769,7.82281203 61.1387769,5.76060902 C65.0532,5.10452632 67.9644692,7.08665414 68.5446,10.6185038 C68.7171,11.6637519 68.7197538,12.7447669 68.7208154,13.8092331 C68.7309,29.9091504 68.6226231,46.0090677 68.7892846,62.1068496 C68.8423615,67.2316617 66.8249077,70.8281053 60.1488923,70.725609 C42.6430615,70.4570902 25.1298,70.6380602 7.61972308,70.6337895 C2.4564,70.6327218 0.0143307692,68.1877594 0.0106153846,62.9636541 C-0.000530769231,46.2418195 -0.00849230769,29.519985 0.0164538462,12.7981504 C0.0244153846,7.80412782 2.7186,5.20115038 7.76143846,5.6383609 Z" id="Fill-1"></path>
                    <path d="M37.4476269,6.91032857 C37.4433808,8.14722331 37.3711962,9.39052406 37.4593038,10.6210128 C37.6217192,12.8967496 36.3998885,13.5661782 34.4031346,13.5373511 C32.5385423,13.5101256 31.3947346,12.8855391 31.4632038,10.7437947 C31.5475962,8.09490752 31.5481269,5.43908045 31.4637346,2.79019323 C31.3947346,0.63883985 32.5491577,0.0361406015 34.4121577,0.0153210526 C36.4089115,-0.0071 37.62915,0.654854887 37.4677962,2.93432857 C37.3749115,4.2529 37.4513423,5.58481729 37.4476269,6.91032857" id="Fill-3"></path>
                    <path d="M58.2145038,6.8008391 C58.2182192,7.95018496 58.1470962,9.10486917 58.2330808,10.2472752 C58.3992115,12.4541474 57.5388346,13.5431699 55.2437885,13.5522451 C52.9864269,13.5613203 52.0878346,12.584403 52.1955808,10.3204105 C52.3176577,7.76280902 52.2730731,5.19346316 52.2125654,2.63105714 C52.1600192,0.387884211 53.5389577,0.0104631579 55.3080115,0.0254105263 C56.9947962,0.0398240602 58.2718269,0.495718797 58.2182192,2.5579218 C58.1815962,3.97098195 58.2107885,5.38671128 58.2145038,6.8008391" id="Fill-4"></path>
                    <path d="M10.4167708,6.81802857 C10.4146477,5.66921654 10.4958554,4.51239699 10.3971323,3.37159248 C10.2108323,1.22878045 10.8652708,0.00469774436 13.2510785,0.000427067669 C15.6469708,-0.0049112782 16.5397246,1.05688571 16.4075631,3.42177293 C16.2700938,5.88969023 16.32954,8.37202105 16.3863323,10.8463444 C16.4367554,13.0398707 15.1204477,13.5101789 13.3269785,13.5331338 C11.4687554,13.5566226 10.2511708,12.9832842 10.4019092,10.7956301 C10.4926708,9.47599098 10.4183631,8.14407368 10.4167708,6.81802857" id="Fill-5"></path>
                </g>
            </g>
        </g>
    </g>
</svg>