<svg width="60px" height="72px" viewBox="0 0 60 72" version="1.1" xmlns="http://www.w3.org/2000/svg" xmlns:xlink="http://www.w3.org/1999/xlink">
    <!-- Generator: Sketch 50 (54983) - http://www.bohemiancoding.com/sketch -->
    <title>Page 1</title>
    <desc>Created with Sketch.</desc>
    <defs>
        <polygon id="path-1" points="0.00013438191 1.03447021e-05 59.656 1.03447021e-05 59.656 71.9370629 0.00013438191 71.9370629"></polygon>
    </defs>
    <g id="Final-Page-Designs" stroke="none" stroke-width="1" fill="none" fill-rule="evenodd">
        <g id="Academics" transform="translate(-227.000000, -2065.000000)">
            <g id="Group" transform="translate(128.000000, 2065.000000)">
                <g id="Page-1" transform="translate(99.000000, 0.000000)">
                    <mask id="mask-2" fill="white">
                        <use xlink:href="#path-1"></use>
                    </mask>
                    <g id="Clip-2"></g>
                    <path d="M32.57345,0.0671160839 C40.11795,0.0671160839 47.31545,-0.0124363636 54.50945,0.112934266 C56.85745,0.153717483 58.96295,2.38823497 59.38145,4.78185734 C59.56895,5.85229091 59.64295,6.95595524 59.64395,8.04401119 C59.65895,26.6285706 59.66645,45.2131301 59.62895,63.7976895 C59.62595,65.1792839 59.52395,66.6570462 59.03795,67.9223329 C57.83395,71.0555916 55.17045,71.9276476 52.08495,71.9266406 C41.15145,71.9226126 30.21745,71.9261371 19.28395,71.9266406 C15.32895,71.9266406 11.37445,71.9553399 7.41945,71.9175776 C2.35645,71.8687385 0.00395,69.488207 0.00295,64.4638154 C-0.00055,45.4110042 -0.00105,26.3576895 0.00295,7.30437483 C0.00395,2.25581538 2.18595,0.0444587413 7.19645,0.00871048951 C9.74295,-0.00891188811 12.28945,0.00568951049 15.07595,0.00568951049 C15.12195,1.01872448 15.19095,1.84596923 15.19195,2.67371748 C15.20045,10.1697734 15.16245,17.6668364 15.23945,25.1623888 C15.24995,26.1301091 15.83695,27.0917874 16.15695,28.0564867 C16.93645,27.6486545 17.77795,27.3284308 18.48345,26.8173818 C20.35095,25.4644867 22.13095,22.9847664 23.99845,22.9349203 C25.71595,22.8891021 27.46345,25.4755636 29.27595,26.794221 C30.01045,27.3289343 30.95095,27.5756476 31.79745,27.9537734 C32.05595,27.0303608 32.53145,26.1084587 32.53895,25.1830322 C32.60045,17.7650182 32.57345,10.3465007 32.57345,2.92848671 L32.57345,0.0671160839 Z" id="Fill-1" fill="#0E4980" mask="url(#mask-2)"></path>
                </g>
            </g>
        </g>
    </g>
</svg>