<svg id="Layer_1" data-name="Layer 1" xmlns="http://www.w3.org/2000/svg" viewBox="0 0 40 40"><defs><style>.cls-1{fill:#fff;}</style></defs><title>betterArtboard 1</title><path class="cls-1" d="M29.09,16.42c1.05-.45,2.9-1.48,2.9-3.1,0-3.55-.91-11.86-1-13.15A.19.19,0,0,0,30.75,0h-.6A.19.19,0,0,0,30,.19V11.57a.2.2,0,0,1-.2.2h-.62a.2.2,0,0,1-.2-.2V.19A.19.19,0,0,0,28.75,0h-.81a.2.2,0,0,0-.2.19V11.58a.2.2,0,0,1-.2.2H27a.2.2,0,0,1-.2-.2V.19A.2.2,0,0,0,26.6,0h-.82a.2.2,0,0,0-.19.19V11.57a.2.2,0,0,1-.2.2h-.61a.2.2,0,0,1-.2-.2V.19a.2.2,0,0,0-.2-.19h-.59a.19.19,0,0,0-.19.17c-.15,1.29-1.06,9.6-1.06,13.15,0,1.62,1.85,2.65,2.91,3.1a1.09,1.09,0,0,1,.66,1.07l-1,20.19a2.19,2.19,0,0,0,.73,1.73h0a2.2,2.2,0,0,0,2.93,0h0a2.19,2.19,0,0,0,.73-1.73l-1-20.19A1.09,1.09,0,0,1,29.09,16.42Z"/><path class="cls-1" d="M15.79,15.58c1.31-.67,4.46-2.85,4.46-8.07C20.25,4.81,18,0,14.11,0h0C10.25,0,8,4.81,8,7.51c0,5.22,3.15,7.4,4.46,8.07a1,1,0,0,1,.53.92l-1,21.2a2.21,2.21,0,0,0,.73,1.74,2.14,2.14,0,0,0,2.89,0,2.21,2.21,0,0,0,.73-1.74l-1-21.2A1,1,0,0,1,15.79,15.58ZM9.15,8.31a7.27,7.27,0,0,1,1.4-4.79A10.59,10.59,0,0,0,12.47,14C11.65,14,9.15,10.87,9.15,8.31Z"/></svg>