<svg width="60px" height="71px" viewBox="0 0 60 71" version="1.1" xmlns="http://www.w3.org/2000/svg" xmlns:xlink="http://www.w3.org/1999/xlink">
    <!-- Generator: Sketch 50 (54983) - http://www.bohemiancoding.com/sketch -->
    <title>Page 1</title>
    <desc>Created with Sketch.</desc>
    <defs>
        <polygon id="path-1" points="0 -2.84217094e-14 59.7081818 -2.84217094e-14 59.7081818 70.4882538 0 70.4882538"></polygon>
    </defs>
    <g id="Final-Page-Designs" stroke="none" stroke-width="1" fill="none" fill-rule="evenodd">
        <g id="Academics" transform="translate(-839.000000, -2065.000000)">
            <g id="Group-4" transform="translate(740.000000, 2065.000000)">
                <g id="Page-1" transform="translate(99.000000, 0.000000)">
                    <mask id="mask-2" fill="white">
                        <use xlink:href="#path-1"></use>
                    </mask>
                    <g id="Clip-2"></g>
                    <path d="M34.1595273,47.0656815 C34.1442545,44.6150892 32.2155273,42.6811585 29.7964364,42.6915354 C27.2628,42.7030046 25.3728,44.6298354 25.3984364,47.17382 C25.4240727,49.5992892 27.3648,51.4813354 29.8324364,51.4725969 C32.2537091,51.4649508 34.1748,49.5080815 34.1595273,47.0656815 M29.6082545,40.2808123 C30.5862545,40.2808123 31.5642545,40.2824508 32.5422545,40.2802662 C33.5491636,40.2786277 33.9004364,39.9187123 33.9375273,38.9219815 C33.9931636,37.4058585 34.0798909,35.8913738 34.1393455,34.3757969 C34.1671636,33.6592431 34.3924364,33.0349892 34.9111636,32.5330738 C35.5438909,31.9213815 36.1793455,31.31242 36.8213455,30.7105585 C38.4080727,29.2222892 40.0640727,27.8022892 41.5717091,26.2370123 C43.3291636,24.4128585 44.3066182,22.1850969 44.2618909,19.6099815 C44.1909818,15.4766892 42.1586182,12.3701662 38.7609818,10.2996969 C33.6680727,7.19645077 28.2015273,7.03205846 22.8091636,9.37615077 C18.6053455,11.2041277 16.1328,14.5946508 15.4978909,19.2172969 C15.3418909,20.3543892 15.6222545,20.7721969 16.7360727,20.92512 C18.6953455,21.1921892 20.6611636,21.4188431 22.6237091,21.6678892 C23.4844364,21.77712 23.9038909,21.5056815 24.1280727,20.6722508 C24.1978909,20.4128277 24.2497091,20.1479431 24.3288,19.8917969 C25.4644364,16.2052585 28.7884364,14.50672 32.4320727,15.7978277 C35.4397091,16.8633738 36.2268,20.2844815 33.8300727,22.2413508 C32.8460727,23.0458354 31.8844364,23.8803585 30.9391636,24.7301738 C29.9584364,25.6133046 28.9695273,26.4931585 28.0580727,27.4445585 C27.1755273,28.3664662 26.4326182,29.4079815 26.1195273,30.6832508 C25.4377091,33.4609892 25.2511636,36.2862431 25.3749818,39.1344354 C25.4088,39.9258123 25.7993455,40.2649738 26.6011636,40.2764431 C27.6026182,40.2917354 28.6057091,40.2802662 29.6082545,40.2808123 M-0.000109090909,29.8875046 C0.0888,15.0807277 10.8146182,2.57598923 25.3935273,0.341673846 C40.3706182,-1.95381077 54.8131636,7.53561231 58.7109818,22.2320662 C62.8831636,37.9667585 53.5869818,54.2268508 37.9078909,58.5993585 C37.4229818,58.7348046 37.1208,58.9816662 36.8720727,59.4180431 C34.9460727,62.7970969 32.9938909,66.1603123 31.0580727,69.5328123 C30.7820727,70.0139738 30.5088,70.4836662 29.8733455,70.4885815 C29.2400727,70.4934969 28.9558909,70.0412815 28.6766182,69.5541123 C26.7326182,66.1581277 24.7869818,62.7626892 22.8053455,59.3885508 C22.6089818,59.0553969 22.2031636,58.7473662 21.8306182,58.6310354 C10.6613455,55.13292 3.63916364,47.70632 0.743890909,36.3637969 C0.5208,35.4904969 0.370254545,34.5904354 0.274254545,33.6931046 C0.139527273,32.4293046 0.0871636364,31.15622 -0.000109090909,29.8875046" id="Fill-1" fill="#0E4980" mask="url(#mask-2)"></path>
                </g>
            </g>
        </g>
    </g>
</svg>