<svg width="72px" height="71px" viewBox="0 0 72 71" version="1.1" xmlns="http://www.w3.org/2000/svg" xmlns:xlink="http://www.w3.org/1999/xlink">
    <!-- Generator: Sketch 50 (54983) - http://www.bohemiancoding.com/sketch -->
    <title>Page 1</title>
    <desc>Created with Sketch.</desc>
    <defs></defs>
    <g id="Final-Page-Designs" stroke="none" stroke-width="1" fill="none" fill-rule="evenodd">
        <g id="Academics" transform="translate(-528.000000, -2065.000000)" fill="#0E4980">
            <g id="Group-2" transform="translate(435.000000, 2065.000000)">
                <g id="Page-1" transform="translate(93.000000, 0.000000)">
                    <g id="Group-3" transform="translate(0.000000, 0.488785)">
                        <path d="M35.5267475,4.54147686 C32.9518623,4.49453471 30.2335672,4.88356777 27.5571738,5.58300579 C10.7982885,9.96329504 0.846944262,27.4105182 5.74294426,43.8244273 C10.7923869,60.7523529 29.1695016,70.0961876 45.9874033,64.2865099 C61.0023541,59.0994025 69.5727148,43.9658405 66.2223541,28.5576669 C63.1936328,14.6322785 50.378223,4.54030331 35.5267475,4.54147686 M36.5589443,0.0995760331 C52.2018295,0.10016281 66.6053705,11.2307331 70.4461574,26.9000223 C74.4486492,43.2317826 66.3327148,59.9514025 50.9300262,67.0819149 C45.1062885,69.7775678 38.9892393,70.8061876 32.5865508,70.2804355 C18.1328459,69.093386 5.59422295,59.0325099 1.4713377,45.2749397 C-3.90151475,27.3494934 5.87691148,8.35728678 23.6833377,2.13510496 C27.5925836,0.76908843 31.6157311,0.0602619835 36.5589443,0.0995760331" id="Fill-1"></path>
                    </g>
                    <path d="M41.3834164,16.5537967 C43.5186295,17.0273256 45.4667607,17.7150281 47.1682033,18.9701438 C49.5524656,20.7293008 50.8083344,23.0945983 50.9316787,26.0396314 C50.9635475,26.8053752 50.9234164,27.5769868 50.8661705,28.3427306 C50.8136459,29.0503835 50.3657115,29.4429372 49.6687279,29.4493917 C47.419023,29.4705157 45.1681377,29.4769702 42.919023,29.4476314 C42.1642033,29.4376562 41.745777,28.964714 41.6985639,28.1913421 C41.6637443,27.615714 41.6796787,27.0365653 41.6720066,26.4597636 C41.6543016,25.0567802 41.1024984,24.152557 39.7563344,23.721276 C38.8268262,23.4237802 37.8241377,23.2319041 36.8509574,23.2195818 C35.5331213,23.2025653 34.189318,23.2841273 32.8998098,23.539962 C31.2886623,23.8609289 30.5509574,24.7375736 30.4771869,26.0067719 C30.3526623,28.1314909 30.7864328,28.9817306 32.5563344,29.6377471 C35.2463016,30.6352678 37.9793508,31.5154331 40.6699082,32.5106066 C42.8600066,33.3209455 45.0760721,34.1013587 47.167023,35.1246975 C49.2703672,36.1550777 51.0249246,37.7874909 51.263941,40.2126397 C51.5023672,42.6289868 51.4681377,45.1216149 51.148859,47.5274 C50.8602689,49.7049289 49.3134492,51.2921603 47.5040066,52.5337802 C45.6833508,53.7836149 43.631941,54.4672099 41.3863672,54.9290033 C41.3863672,55.1713421 41.3869574,55.4265901 41.3863672,55.6824248 C41.3845967,57.1258959 41.4046623,58.5699537 41.3727934,60.012838 C41.3480066,61.1306479 40.8882689,61.6740033 39.8147607,61.6951273 C37.468859,61.7414826 35.1211869,61.7385488 32.7752852,61.6857388 C31.715941,61.661681 31.2585639,61.1470777 31.2255148,60.0756231 C31.1800721,58.6092678 31.1889246,57.1405653 31.1995475,55.6736231 C31.2030885,55.2441025 31.103941,55.0627884 30.6205967,54.9812264 C28.0958754,54.5569868 25.6868262,53.8029785 23.6295148,52.2104661 C21.3892525,50.4747802 20.2396131,48.1898711 20.2301705,45.358086 C20.2278098,44.637524 20.2171869,43.9110942 20.3080721,43.1993339 C20.4078098,42.4159868 20.8344984,42.0422099 21.6276787,42.0328215 C23.8301705,42.0070033 26.0320721,42.010524 28.2339738,42.0334083 C28.9480721,42.0410364 29.4314164,42.4300694 29.5187607,43.1582595 C29.5901705,43.7526645 29.6167279,44.3564579 29.6025639,44.9543835 C29.5748262,46.0980116 30.0859082,46.954119 31.1080721,47.3631025 C32.0576459,47.7421603 33.0786295,48.0179455 34.0925311,48.1487967 C35.8996131,48.3811603 37.7255803,48.3318711 39.4830885,47.7920364 C42.2615803,46.938276 42.2550885,45.5311851 41.8880066,43.1289207 C41.8089246,42.6061025 41.0824328,42.0375157 40.5194164,41.760557 C39.2482033,41.1356397 37.9038098,40.6492017 36.5700393,40.1604165 C33.6032852,39.0742926 30.6099738,38.0615157 27.6567934,36.943119 C24.3819738,35.7032595 21.9245311,33.5093008 21.3621049,29.9939207 C20.8232852,26.6299289 20.8315475,23.1920033 23.3627607,20.3713669 C25.2672197,18.2495818 27.7482689,17.1963174 30.4760066,16.637119 C31.0419738,16.5203504 31.2202033,16.3114579 31.2054492,15.7475653 C31.1682689,14.3774413 31.1735803,13.0043835 31.2072197,11.6336727 C31.2396787,10.284086 31.7100393,9.79001983 33.055023,9.76713554 C35.2321377,9.7301686 37.4116131,9.73134215 39.5887279,9.76713554 C40.8841377,9.78767273 41.3645311,10.3069702 41.3786951,11.6060942 C41.3969902,13.239681 41.3834164,14.8732678 41.3834164,16.5537967" id="Fill-4"></path>
                </g>
            </g>
        </g>
    </g>
</svg>