<svg id="fill-none" width="56px" height="67px" viewBox="0 0 56 67" version="1.1" xmlns="http://www.w3.org/2000/svg" xmlns:xlink="http://www.w3.org/1999/xlink">
    <!-- Generator: Sketch 50 (54983) - http://www.bohemiancoding.com/sketch -->
    <title>Page 1</title>
    <desc>Created with Sketch.</desc>
    <defs>
        <polygon id="path-1" points="0 0 56 0 56 67 0 67"></polygon>
    </defs>
    <g id="Final-Page-Designs" stroke="none" stroke-width="1" fill="#000" fill-rule="evenodd">
        <g id="Current-Students" transform="translate(-692.000000, -3655.000000)">
            <g id="Page-1" transform="translate(692.000000, 3655.000000)">
                <mask id="mask-2" fill="white">
                    <use xlink:href="#path-1"></use>
                </mask>
                <g id="Clip-2"></g>
                <path d="M23.3343858,30.6784712 L32.6538729,30.6784712 L32.6538729,19.6304255 L23.3343858,19.6304255 L23.3343858,30.6784712 Z M31.5450647,15.6667967 C31.6634879,15.681983 31.6973231,15.6902665 31.7304534,15.6902665 C33.706289,15.6523007 35.6835344,15.643327 37.6579602,15.5660148 C39.1770204,15.5059598 40.6967855,15.403107 42.2066819,15.2360575 C43.2781304,15.1187087 44.3213829,14.8412133 45.2271798,14.2020074 C47.4920245,12.604683 48.0707477,10.3633206 47.5350234,7.85619772 C47.1008048,5.82399237 45.7297737,4.4054523 43.6940216,3.74691836 C41.4552582,3.02349744 39.3412622,3.29547057 37.6487965,5.0066924 C36.8586032,5.80604491 36.1910626,6.75726059 35.629962,7.72918488 C34.5465302,9.60676591 33.5674237,11.5430213 32.5671701,13.465471 C32.200622,14.1702542 31.896105,14.9061003 31.5450647,15.6667967 Z M24.4023098,15.6536813 C24.3515569,15.5094113 24.322656,15.3899916 24.2704934,15.2809262 C23.813718,14.3248785 23.361172,13.36676 22.8902986,12.4176151 C21.7906541,10.198342 20.6353225,8.0128929 19.217063,5.96274009 C17.6733314,3.73311262 14.8924996,2.86335082 12.6241304,3.62404725 C9.24131378,4.75818903 7.75044961,7.37851901 8.45041563,10.9127892 C8.84375,12.8959841 10.2161909,14.2379023 12.1913216,14.8791791 C12.9110248,15.1131864 13.6821858,15.2471021 14.4392487,15.3071571 C16.3601021,15.4590203 18.2851848,15.5722274 20.2109725,15.643327 C21.5918722,15.6950985 22.9755915,15.6536813 24.4023098,15.6536813 Z M36.1001305,30.6791615 L52.4058846,30.6791615 L52.4058846,19.6421604 L36.1001305,19.6421604 L36.1001305,30.6791615 Z M3.57109564,30.6805421 L19.8761448,30.6805421 L19.8761448,19.6407798 L3.57109564,19.6407798 L3.57109564,30.6805421 Z M32.6193327,63.4995539 L32.6193327,34.1595892 C32.539679,34.132668 32.518532,34.1202429 32.497385,34.1202429 C29.555836,34.118172 26.614287,34.1188623 23.6727379,34.1105789 C23.3921876,34.1091983 23.3865484,34.2589906 23.3844337,34.4584836 C23.3654014,36.1552094 23.3245172,37.8519352 23.3224025,39.548661 C23.3125339,47.4075801 23.311829,55.2664992 23.3083045,63.124728 C23.3083045,63.2455282 23.3083045,63.3663285 23.3083045,63.4995539 L32.6193327,63.4995539 Z M49.7907044,34.1319778 C49.6560685,34.1223137 49.5982666,34.1147206 49.5404648,34.1147206 C45.2264749,34.1140303 40.912485,34.1174817 36.5977901,34.1078177 C36.2650772,34.1071274 36.1593421,34.2030773 36.1586372,34.5302734 C36.1537029,36.0447634 36.1092942,37.5592534 36.1071795,39.0744337 C36.096606,47.104544 36.0944913,55.1332738 36.089557,63.1633841 C36.089557,63.2724494 36.1001305,63.3828954 36.1057697,63.4871287 L49.7907044,63.4871287 L49.7907044,34.1319778 Z M19.8373753,63.5043859 L19.8373753,34.1299069 C19.7189521,34.1223137 19.6618551,34.1147206 19.6047582,34.1147206 C15.3006369,34.1140303 10.9965156,34.1188623 6.69239424,34.1050566 C6.31527257,34.103676 6.21940613,34.2279277 6.21799633,34.5689295 C6.21306203,36.0848001 6.17499741,37.5992901 6.17217781,39.1144703 C6.1587847,47.1356069 6.1524406,55.1574338 6.14327689,63.1785704 C6.14257199,63.2862552 6.14327689,63.3932497 6.14327689,63.5043859 L19.8373753,63.5043859 Z M41.9557374,67 L14.0318163,67 C13.9063441,66.9861943 13.7808718,66.9613439 13.6561045,66.9599633 C10.5961322,66.9247587 7.53686482,66.8950764 4.47759745,66.85573 C4.21325983,66.8522786 3.95033201,66.7839401 3.68669929,66.7487355 C3.38218236,66.706628 3.20031808,66.5209407 3.14463095,66.2434453 C3.05863311,65.8092547 2.96276667,65.3709223 2.94373436,64.9318997 C2.87958843,63.4298349 2.81896701,61.9263895 2.8090984,60.4229441 C2.75129658,51.7984966 2.70829766,43.1733587 2.66036444,34.5489112 C2.65965953,34.4149955 2.66036444,34.2803895 2.66036444,34.1216235 C2.31919268,34.0953925 2.00974144,34.0677811 1.6988804,34.0470724 C0.771231589,33.9856369 0.240441652,33.5265959 0.154443813,32.6899679 C0.114969396,32.3047877 0.0804292803,31.9175366 0.0761998784,31.5309758 C0.0437744639,28.4778358 -0.00204405663,25.4246958 7.0644317e-05,22.3715557 C0.000775544633,20.823932 0.0846586822,19.2756179 0.14668991,17.7279941 C0.181934926,16.823718 0.555532093,16.4129971 1.47965641,16.2701077 C1.96039842,16.1948664 2.45030414,16.1534492 2.93668536,16.1472366 C4.35564969,16.1285988 5.77461403,16.1355017 7.19428326,16.1327405 L7.63273126,16.1327405 C7.46989929,15.9470533 7.36839364,15.8262531 7.26195369,15.7095945 C5.35519834,13.6290691 4.54244828,11.1826915 4.8180643,8.41740116 C5.09297542,5.6562526 6.39845081,3.42662513 8.68162293,1.77752915 C10.6017714,0.391432568 12.7510125,-0.167009729 15.1434441,0.0428375619 C16.8852528,0.194700733 18.4501315,0.722770396 19.8416047,1.74301479 C21.091393,2.65902583 22.0084683,3.8684089 22.831087,5.14129839 C24.7223345,8.06811587 26.2766397,11.1668148 27.6476708,14.3566317 C27.7400128,14.5706207 27.8478625,14.7783972 27.9902524,15.0766012 C28.1171344,14.8218853 28.2059519,14.6569066 28.2834909,14.4864057 C28.7501349,13.4585682 29.1864682,12.4176151 29.6848327,11.4056542 C30.9007858,8.93718738 32.1625573,6.49219032 33.777484,4.24047367 C35.5058995,1.82999097 37.7277453,0.223692793 40.834241,0.0400764133 C42.3582355,-0.0503512022 43.8505095,0.0801130675 45.2786375,0.653741682 C49.1964735,2.22690608 51.5910198,6.10493924 51.1737188,10.2521844 C50.9671831,12.3120012 50.2030711,14.148165 48.7509765,15.6833636 C48.6304385,15.8110667 48.5197692,15.9477436 48.3555274,16.1355017 C49.7385418,16.1355017 51.0285094,16.1203154 52.3177721,16.1417143 C53.0593272,16.1541394 53.8058166,16.1865829 54.5417326,16.2783911 C55.4087599,16.3867662 55.7823571,16.8043899 55.8352246,17.6589654 C55.9014853,18.7275299 55.967041,19.797475 55.9776145,20.86742 C56.0008762,23.2261312 56.009335,25.5848424 55.9867782,27.9428632 C55.9726802,29.4794424 55.9014853,31.0167119 55.8415687,32.5526008 C55.8077335,33.4120083 55.4292021,33.8379154 54.5614698,33.9953009 C54.1660207,34.0670908 53.7599981,34.0850382 53.3419922,34.1292166 C53.3370579,34.2451848 53.3278942,34.3452765 53.3278942,34.4460584 C53.2834855,41.9998706 53.2531748,49.5529925 53.188324,57.107495 C53.1643573,59.896255 53.0720154,62.6857054 52.9810833,65.4737751 C52.9444284,66.5934209 52.6356821,66.8453757 51.4747113,66.8598717 C49.0435101,66.8902443 46.6123089,66.9144044 44.1811077,66.9461576 C43.4395526,66.9558216 42.6972926,66.9813622 41.9557374,67 Z" id="Fill-1" fill="#0E4A80" mask="url(#mask-2)"></path>
            </g>
        </g>
    </g>
</svg>