<svg id="fill-none" width="101px" height="56px" viewBox="0 0 101 56" version="1.1" xmlns="http://www.w3.org/2000/svg" xmlns:xlink="http://www.w3.org/1999/xlink">
    <!-- Generator: Sketch 50 (54983) - http://www.bohemiancoding.com/sketch -->
    <title>Page 1</title>
    <desc>Created with Sketch.</desc>
    <defs></defs>
    <g id="Final-Page-Designs" stroke="none" stroke-width="1" fill="none" fill-rule="evenodd">
        <g id="Current-Students" transform="translate(-670.000000, -3850.000000)">
            <g id="Page-1" transform="translate(670.000000, 3850.000000)">
                <polygon id="Clip-2" points="0 0 101 0 101 56 0 56"></polygon>
                <path d="M16.024536,43.9858413 L84.0299399,43.9858413 L84.0299399,3.95869739 L16.024536,3.95869739 L16.024536,43.9858413 Z M49.8222951,47.9983462 C38.7432271,47.9983462 27.6649693,48.003201 16.5859014,47.9959188 C12.6798353,47.9943005 12.0042528,47.3130081 12.0026327,43.4194461 C11.9993925,30.4546616 11.9985824,17.4882588 12.0034427,4.52347425 C12.0042528,0.786075527 12.7802817,0.00121370385 16.4490028,0.00121370385 C38.803981,-0.00040456795 61.1581491,-0.00040456795 83.5123173,0.00121370385 C87.2118203,0.00121370385 87.9959497,0.777984168 87.9967598,4.48544486 C88.0016201,17.3846894 88,30.2855522 87.9983799,43.1847967 C87.9975698,47.3704567 87.3867914,47.9951096 83.2555311,47.9967279 C72.1116591,48.0023919 60.9669771,47.9991553 49.8222951,47.9983462 Z" id="Fill-1" fill="#0E4A80"></path>
                <path d="M0.068390404,51.0306231 L1.95699889,51.0306231 C15.0594758,51.0306231 28.1619528,51.0289853 41.2644297,51.0330798 C42.2189581,51.0330798 43.2577337,50.7603814 43.5546436,52.2450731 C43.6274396,52.608671 44.5762425,53.0173093 45.1291656,53.0271362 C48.7010812,53.0975629 52.2762686,53.0885548 55.8490022,53.0361443 C56.3765693,53.0287741 57.3073776,52.7306893 57.3580895,52.4440692 C57.6770836,50.6531036 58.9767799,51.0338988 60.1104358,51.0338988 C72.9487202,51.0281664 85.7861867,51.0306231 98.6244711,51.0306231 L100.748644,51.0306231 C101.550219,54.5126468 100.455824,55.9948818 97.1603701,55.9957007 C66.0584483,56.0014331 34.9557085,56.0014331 3.8537867,55.9957007 C0.622949326,55.9948818 -0.274323738,54.8672367 0.068390404,51.0306231" id="Fill-3" fill="#0E4A80"></path>
            </g>
        </g>
    </g>
</svg>