<svg width="64px" height="64px" viewBox="0 0 64 64" version="1.1" xmlns="http://www.w3.org/2000/svg" xmlns:xlink="http://www.w3.org/1999/xlink">
    <!-- Generator: Sketch 50 (54983) - http://www.bohemiancoding.com/sketch -->
    <title>Page 1</title>
    <desc>Created with Sketch.</desc>
    <defs></defs>
    <g id="Final-Page-Designs" stroke="none" stroke-width="1" fill="none" fill-rule="evenodd">
        <g id="Current-Students" transform="translate(-1096.000000, -3844.000000)">
            <g id="Page-1" transform="translate(1098.000000, 3846.000000)">
                <path d="M59.8023,29.9012 C59.8023,46.4152 46.4153,59.8022 29.9013,59.8022 C13.3873,59.8022 0.0003,46.4152 0.0003,29.9012 C0.0003,13.3872 13.3873,0.0002 29.9013,0.0002 C46.4153,0.0002 59.8023,13.3872 59.8023,29.9012 Z" id="Stroke-1" stroke="#0E4A80" stroke-width="4"></path>
                <path d="M31.9503,33.4217 L31.9503,39.7627 C34.0793,39.4447 35.1663,38.4487 35.1663,36.8177 C35.1663,35.2787 34.3963,34.3277 31.9503,33.4217 Z M27.6933,19.4277 C25.5193,19.7447 24.5683,20.8317 24.5683,22.2807 C24.5683,23.6857 25.2023,24.6367 27.6933,25.5417 L27.6933,19.4277 Z M32.1773,45.4237 L32.1773,49.9067 L27.4673,49.9067 L27.4673,45.3327 C23.5723,44.8347 19.7673,43.2947 16.7793,41.0297 L20.3113,35.8667 C22.7573,37.7247 25.0213,38.9917 27.6933,39.5357 L27.6933,32.3347 C21.1723,30.5687 17.9563,28.0327 17.9563,22.6887 C17.9563,17.6617 21.7613,14.3557 27.4673,13.7677 L27.4673,11.1407 L32.1773,11.1407 L32.1773,13.8577 C35.3923,14.3107 38.1553,15.4877 40.6003,17.2087 L37.5663,22.5077 C35.7543,21.2847 33.8523,20.3337 31.9503,19.8357 L31.9503,26.6737 C38.8343,28.5307 41.7783,31.3837 41.7783,36.4557 C41.7783,41.4837 37.9283,44.7887 32.1773,45.4237 Z" id="Fill-3" fill="#0E4A80"></path>
            </g>
        </g>
    </g>
</svg>