<svg width="64px" height="64px" viewBox="0 0 64 64" version="1.1" xmlns="http://www.w3.org/2000/svg" xmlns:xlink="http://www.w3.org/1999/xlink">
    <!-- Generator: Sketch 50 (54983) - http://www.bohemiancoding.com/sketch -->
    <title>Page 1</title>
    <desc>Created with Sketch.</desc>
    <defs></defs>
    <g id="Final-Page-Designs" stroke="none" stroke-width="1" fill="none" fill-rule="evenodd">
        <g id="Current-Students" transform="translate(-1096.000000, -3661.000000)">
            <g id="Page-1" transform="translate(1098.000000, 3663.000000)">
                <path d="M59.8023,29.901 C59.8023,46.416 46.4153,59.802 29.9013,59.802 C13.3873,59.802 0.0003,46.416 0.0003,29.901 C0.0003,13.387 13.3873,-7.10542736e-15 29.9013,-7.10542736e-15 C46.4153,-7.10542736e-15 59.8023,13.387 59.8023,29.901 Z" id="Stroke-1" stroke="#0E4A80" stroke-width="4"></path>
                <path d="M26.1402,11.1256 L33.6622,11.1256 L32.5702,37.3936 L27.2322,37.3936 L26.1402,11.1256 Z M25.7152,44.4906 C25.7152,42.1856 27.5962,40.3056 29.9012,40.3056 C32.2062,40.3056 34.0872,42.1856 34.0872,44.4906 C34.0872,46.7956 32.2062,48.6766 29.9012,48.6766 C27.5962,48.6766 25.7152,46.7956 25.7152,44.4906 Z" id="Fill-3" fill="#2592D0"></path>
            </g>
        </g>
    </g>
</svg>