<svg id="Layer_1" data-name="Layer 1" xmlns="http://www.w3.org/2000/svg" viewBox="0 0 40 40"><defs><style>.cls-1{fill:#fff;}</style></defs><title>betterArtboard 1</title><path class="cls-1" d="M18.65,35.63,16.3,26.25a3.52,3.52,0,0,0-.79-1.49,3.48,3.48,0,0,0,.9-2.34,3.53,3.53,0,0,0-3.52-3.52H10.38L9,16.16l0,0a4.68,4.68,0,1,0-5.4-1.08,3.56,3.56,0,0,0-1.14,1.83L.11,26.25a3.52,3.52,0,0,0,2,4.07L0,38.54a1.17,1.17,0,0,0,2.27.57l.95-3.8h8.06l.5,2a3.52,3.52,0,0,0,6.83-1.7ZM7,9.53a2.35,2.35,0,1,1-2.34,2.34A2.35,2.35,0,0,1,7,9.53ZM3.85,33l.58-2.35h5.72L10.73,33Zm11.67,4.65a1.17,1.17,0,0,1-1.42-.85l-1.9-7.6a1.17,1.17,0,0,0-1.14-.89H3.52a1.2,1.2,0,0,1-.93-.45,1.18,1.18,0,0,1-.21-1l2.34-9.37a1.18,1.18,0,0,1,2.19-.24h0L8.6,20.6a1.18,1.18,0,0,0,1.05.65h3.24a1.17,1.17,0,0,1,0,2.34H8.2a1.16,1.16,0,0,1-1-.65,1.17,1.17,0,0,0-2.1,1,3.49,3.49,0,0,0,3.14,2h4.69a1.17,1.17,0,0,1,1.14.88l2.34,9.38A1.17,1.17,0,0,1,15.52,37.62Z"/><path class="cls-1" d="M37.91,30.32a3.51,3.51,0,0,0,2-4.07l-2.34-9.37a3.56,3.56,0,0,0-1.14-1.83A4.69,4.69,0,1,0,31,16.13l0,0L29.62,18.9H27.11a3.53,3.53,0,0,0-3.52,3.52,3.48,3.48,0,0,0,.9,2.34,3.52,3.52,0,0,0-.79,1.49l-2.35,9.38a3.52,3.52,0,0,0,6.83,1.7l.5-2h8.06l.95,3.8A1.17,1.17,0,0,0,40,38.54ZM30.62,11.87A2.35,2.35,0,1,1,33,14.22,2.35,2.35,0,0,1,30.62,11.87ZM29.27,33l.58-2.35h5.72L36.15,33Zm7.21-4.69H28.94a1.17,1.17,0,0,0-1.14.89l-1.9,7.6a1.17,1.17,0,1,1-2.27-.57L26,26.82a1.17,1.17,0,0,1,1.14-.88H31.8a3.49,3.49,0,0,0,3.14-2,1.17,1.17,0,0,0-2.1-1,1.16,1.16,0,0,1-1,.65H27.11a1.17,1.17,0,0,1,0-2.34h3.24a1.18,1.18,0,0,0,1-.65c0-.1,1.66-3.33,1.69-3.39a1.18,1.18,0,0,1,2.19.24l2.34,9.37A1.18,1.18,0,0,1,36.48,28.28Z"/><path class="cls-1" d="M24.77,0H15.23a3.52,3.52,0,0,0-3.51,3.52V6a3.52,3.52,0,0,0,3.51,3.51h4.29l4.42,4.35a1.17,1.17,0,0,0,2-.83V9.33A3.53,3.53,0,0,0,28.28,6V3.52A3.52,3.52,0,0,0,24.77,0Zm1.17,6a1.18,1.18,0,0,1-1.17,1.17,1.17,1.17,0,0,0-1.18,1.17v1.89L20.82,7.52A1.18,1.18,0,0,0,20,7.19H15.23A1.18,1.18,0,0,1,14.06,6V3.52a1.18,1.18,0,0,1,1.17-1.18h9.54a1.18,1.18,0,0,1,1.17,1.18Z"/></svg>