<svg width="53px" height="70px" viewBox="0 0 53 70" version="1.1" xmlns="http://www.w3.org/2000/svg" xmlns:xlink="http://www.w3.org/1999/xlink">
    <!-- Generator: Sketch 50 (54983) - http://www.bohemiancoding.com/sketch -->
    <title>Page 1</title>
    <desc>Created with Sketch.</desc>
    <defs></defs>
    <g id="Final-Page-Designs" stroke="none" stroke-width="1" fill="none" fill-rule="evenodd">
        <g id="Alumni" transform="translate(-843.000000, -569.000000)" fill="#0E4980">
            <g id="Page-1" transform="translate(843.000000, 569.000000)">
                <path d="M4.5706,69.9997 C4.3756,69.8937 4.1906,69.7557 3.9836,69.6867 C1.3646,68.8007 0.0066,66.9407 0.0046,64.1527 C-0.0014,50.8517 0.0016,37.5497 0.0016,24.2477 C0.0016,20.5577 -0.0024,16.8677 0.0026,13.1777 C0.0076,9.3827 2.2166,7.1977 6.0496,7.1917 C7.6416,7.1887 9.2336,7.1907 10.9366,7.1907 L10.9366,10.3067 C9.1936,10.3067 7.4756,10.2957 5.7576,10.3097 C3.8906,10.3227 3.1136,11.0917 3.1126,12.9787 C3.1056,30.0157 3.1056,47.0537 3.1126,64.0907 C3.1126,66.0337 3.8986,66.7987 5.8646,66.7997 C19.3946,66.8047 32.9246,66.8047 46.4546,66.7997 C48.4696,66.7987 49.2286,66.0267 49.2286,63.9727 C49.2336,47.0257 49.2336,30.0797 49.2286,13.1327 C49.2286,11.0167 48.4926,10.3167 46.3256,10.3057 C44.7776,10.2967 43.2286,10.2867 41.6806,10.2707 C41.6006,10.2697 41.5216,10.2027 41.3696,10.1327 L41.3696,7.2697 C43.5326,7.2697 45.6816,7.0617 47.7726,7.3197 C50.6096,7.6707 52.3326,9.9477 52.3376,12.8977 C52.3486,20.3697 52.3416,27.8407 52.3416,35.3117 C52.3416,44.3767 52.2396,53.4437 52.3906,62.5067 C52.4526,66.1587 51.4666,68.8257 47.7736,69.9997 L4.5706,69.9997 Z" id="Fill-1"></path>
                <path d="M28.7122,5.8561 C28.7632,4.3321 27.7432,3.2341 26.2462,3.2031 C24.7742,3.1721 23.7072,4.1371 23.6332,5.5671 C23.5522,7.1081 24.5332,8.2221 26.0242,8.2821 C27.5642,8.3441 28.6622,7.3541 28.7122,5.8561 Z M26.9922,0.0001 C27.8762,0.4421 28.8222,0.7941 29.6312,1.3471 C30.8432,2.1771 31.2062,3.0021 31.9862,5.8261 C33.5302,5.8261 35.1182,5.8631 36.7032,5.8141 C37.9362,5.7761 38.4412,6.3041 38.4042,7.5261 C38.3582,9.1191 38.3732,10.7141 38.4002,12.3091 C38.4172,13.4051 37.9172,13.8711 36.8282,13.8691 C29.7222,13.8541 22.6142,13.8551 15.5072,13.8691 C14.4152,13.8711 13.9262,13.3961 13.9442,12.3021 C13.9722,10.6181 13.9572,8.9311 13.9502,7.2461 C13.9462,6.2881 14.4092,5.8221 15.3682,5.8251 C17.0052,5.8321 18.6412,5.8271 20.3592,5.8271 C20.5422,5.1261 20.6732,4.4681 20.8842,3.8381 C21.6082,1.6791 23.3872,0.7271 25.3522,0.0001 L26.9922,0.0001 Z" id="Fill-3"></path>
                <path d="M13.929,28.4606 C13.45,27.8276 13.02,27.2466 12.574,26.6776 C12.086,26.0546 11.501,25.6136 10.718,26.1526 C9.908,26.7096 9.975,27.4346 10.505,28.1596 C11.283,29.2246 12.05,30.2976 12.865,31.3326 C13.732,32.4336 14.494,32.3456 15.366,31.2106 C16.552,29.6656 17.781,28.1496 19.038,26.6616 C19.597,26.0006 19.977,25.3606 19.255,24.6476 C18.551,23.9496 17.835,24.2116 17.237,24.8506 C16.153,26.0076 15.093,27.1876 13.929,28.4606 M21.71,27.8396 C21.747,31.3126 18.818,34.3026 15.315,34.3656 C11.846,34.4296 8.845,31.5176 8.758,28.0046 C8.671,24.4836 11.665,21.4306 15.219,21.4146 C18.702,21.3986 21.672,24.3386 21.71,27.8396" id="Fill-5"></path>
                <path d="M13.929,44.8669 C13.45,44.2339 13.019,43.6529 12.574,43.0839 C12.086,42.4599 11.5,42.0199 10.717,42.5579 C9.908,43.1139 9.973,43.8389 10.504,44.5649 C11.283,45.6299 12.049,46.7029 12.865,47.7379 C13.731,48.8399 14.494,48.7509 15.365,47.6169 C16.551,46.0709 17.78,44.5559 19.038,43.0669 C19.597,42.4059 19.978,41.7669 19.256,41.0539 C18.552,40.3569 17.835,40.6159 17.237,41.2559 C16.153,42.4129 15.093,43.5929 13.929,44.8669 M15.318,37.8199 C18.826,37.8849 21.748,40.8659 21.71,44.3459 C21.672,47.8429 18.697,50.7859 15.214,50.7719 C11.667,50.7589 8.675,47.7019 8.758,44.1749 C8.84,40.6649 11.841,37.7579 15.318,37.8199" id="Fill-7"></path>
                <path d="M26.3118,55.5915 C31.4598,55.5915 36.6078,55.5905 41.7558,55.5925 C42.1208,55.5925 42.5398,55.4985 42.8328,55.6475 C43.1438,55.8055 43.5408,56.2085 43.5288,56.4885 C43.5118,56.8505 43.2038,57.3215 42.8818,57.5135 C42.5728,57.6965 42.0858,57.5975 41.6768,57.5975 C31.3358,57.6005 20.9948,57.5995 10.6538,57.5985 C10.2898,57.5985 9.8578,57.7025 9.5788,57.5455 C9.2398,57.3555 8.7878,56.9045 8.8248,56.6245 C8.8728,56.2545 9.2978,55.8665 9.6568,55.6285 C9.8788,55.4805 10.2768,55.5915 10.5948,55.5915 L26.3118,55.5915 Z" id="Fill-9"></path>
                <path d="M33.9544,27.2594 C31.3194,27.2594 28.6844,27.2544 26.0504,27.2624 C25.3214,27.2644 24.6254,27.2254 24.6254,26.2524 C24.6244,25.2744 25.3304,25.2454 26.0544,25.2454 C31.4144,25.2494 36.7744,25.2514 42.1354,25.2444 C42.8684,25.2434 43.5714,25.2994 43.5684,26.2564 C43.5644,27.2094 42.8664,27.2664 42.1324,27.2634 C39.4054,27.2524 36.6804,27.2594 33.9544,27.2594" id="Fill-11"></path>
                <path d="M34.2445,40.279 C36.8795,40.279 39.5155,40.287 42.1495,40.274 C42.8905,40.271 43.5805,40.336 43.5685,41.292 C43.5565,42.25 42.8425,42.29 42.1165,42.289 C36.7565,42.285 31.3945,42.285 26.0345,42.288 C25.3045,42.289 24.6105,42.235 24.6245,41.259 C24.6385,40.278 25.3465,40.273 26.0665,40.275 C28.7935,40.284 31.5185,40.279 34.2445,40.279" id="Fill-13"></path>
                <path d="M36.097,34.6296 C34.099,34.6296 32.102,34.6256 30.105,34.6326 C29.361,34.6356 28.696,34.5396 28.725,33.5726 C28.752,32.6956 29.366,32.6166 30.061,32.6186 C34.101,32.6276 38.141,32.6286 42.181,32.6176 C42.936,32.6146 43.697,32.7436 43.517,33.6526 C43.439,34.0486 42.689,34.5626 42.223,34.5856 C40.185,34.6886 38.139,34.6296 36.097,34.6296" id="Fill-15"></path>
                <path d="M36.2982,47.9352 C38.2492,47.9352 40.2012,47.9452 42.1532,47.9302 C42.8952,47.9242 43.5822,47.9962 43.5692,48.9512 C43.5542,49.9062 42.8412,49.9462 42.1152,49.9452 C38.1212,49.9402 34.1262,49.9402 30.1322,49.9452 C29.4012,49.9452 28.7102,49.8852 28.7262,48.9132 C28.7412,47.9322 29.4492,47.9282 30.1692,47.9312 C32.2122,47.9422 34.2552,47.9352 36.2982,47.9352" id="Fill-17"></path>
            </g>
        </g>
    </g>
</svg>