<svg id="Layer_1" data-name="Layer 1" xmlns="http://www.w3.org/2000/svg" viewBox="0 0 40 40"><defs><style>.cls-1{fill:#fff;}</style></defs><title>betterArtboard 1</title><path class="cls-1" d="M20,0A20,20,0,1,0,40,20,20,20,0,0,0,20,0Zm9.55,33.64a25.18,25.18,0,0,0-.66-2.59,3.1,3.1,0,0,0-.12-4.81,25.06,25.06,0,0,0,0-12.14,2.84,2.84,0,0,0,.79-.71,22.43,22.43,0,0,1,6.76,3.18A16.91,16.91,0,0,1,36.67,20,16.64,16.64,0,0,1,29.55,33.64ZM3.33,20a16.5,16.5,0,0,1,.54-4.12,21.53,21.53,0,0,1,3.58,0l.07.38a24.8,24.8,0,0,0-4.15,4.45Zm5.31-2a3.06,3.06,0,0,0,4.44-.82,22.9,22.9,0,0,1,11.56,9.44,3.12,3.12,0,0,0,0,4.5,23.09,23.09,0,0,1-4.26,5.51A16.66,16.66,0,0,1,3.79,23.82,23,23,0,0,1,8.64,18Zm4.81-3.17A22.69,22.69,0,0,1,24,12.55a3.62,3.62,0,0,0,2.78,1.95h0a22.78,22.78,0,0,1,0,11.16l-.37,0A24.87,24.87,0,0,0,13.51,15.2Zm10.1,21.43a24.4,24.4,0,0,0,3-4.38H27a20.83,20.83,0,0,1,.68,2.88A16.72,16.72,0,0,1,23.55,36.28ZM35.39,13.61a24.32,24.32,0,0,0-5.31-2.18,3.55,3.55,0,0,0-3.54-3,24.4,24.4,0,0,0-3.37-4.75A16.71,16.71,0,0,1,35.39,13.61ZM24.6,9.1a2.79,2.79,0,0,0-.87,1.43,24.67,24.67,0,0,0-11.41,2.61,3.06,3.06,0,0,0-4.41.8,26.31,26.31,0,0,0-3.38-.12A16.7,16.7,0,0,1,20,3.33h0A22.76,22.76,0,0,1,24.6,9.1Z"/></svg>