<svg class="webmail-icon" width="104px" height="50px" viewBox="0 0 104 50" version="1.1" xmlns="http://www.w3.org/2000/svg" xmlns:xlink="http://www.w3.org/1999/xlink">
    <!-- Generator: Sketch 50 (54983) - http://www.bohemiancoding.com/sketch -->
    <title>Page 1</title>
    <desc>Created with Sketch.</desc>
    <defs>
        <polygon id="path-1" points="0 0.623603242 30.9726465 0.623603242 30.9726465 5.48544708 0 5.48544708"></polygon>
    </defs>
    <g id="Final-Page-Designs" stroke="none" stroke-width="1" fill="none" fill-rule="evenodd">
        <g id="Current-Students" transform="translate(-237.000000, -3858.000000)">
            <g id="Page-1" transform="translate(237.000000, 3860.000000)">
                <path d="M70.5348056,28.9918505 C71.5725908,29.0683195 72.3463377,28.4839589 73.1350085,27.9555233 C77.016371,25.3555749 80.8942894,22.7499198 84.7699119,20.1408407 C87.496394,18.3067243 90.2182841,16.4634772 92.9401742,14.6225129 C94.2523296,13.7334172 95.8342631,12.835191 94.485372,10.9691173 C93.1812526,9.16239284 91.756594,10.2774717 90.4341067,11.1380341 C90.2182841,11.2807003 90.0116455,11.4404864 89.7958229,11.5854352 C84.0535647,15.4454114 78.2562028,19.2289185 72.601192,23.2121582 C70.9446389,24.3774556 69.8402702,24.2359307 68.2812964,23.1550917 C62.3105877,19.0143485 56.2468916,15.0094235 50.2291152,10.9371601 C48.900888,10.0389338 47.4636014,9.3701148 46.4005604,11.0216185 C45.3455553,12.6594262 46.5601314,13.6546655 47.8963946,14.5449025 C54.520311,18.9572821 61.1155276,23.4107495 67.7153362,27.8585103 C68.5797745,28.4405884 69.408625,29.0797328 70.5348056,28.9918505" id="Fill-1" fill="#104C7F"></path>
                <g id="Group-5" transform="translate(0.000000, 4.000000)">
                    <mask id="mask-2" fill="white">
                        <use xlink:href="#path-1"></use>
                    </mask>
                    <g id="Clip-4"></g>
                    <path d="M15.5389222,0.64344 C19.6802926,0.64344 23.8228111,0.68184 27.9641815,0.62424 C29.6393296,0.60144 30.920663,1.18704 30.9711815,3.00864 C31.0228481,4.88064 29.7013296,5.48784 28.0514407,5.48544 C19.6091074,5.47344 11.1656259,5.48184 2.72329259,5.47824 C1.18821852,5.47704 0.0148111111,4.93224 -0.000114814815,3.09624 C-0.017337037,1.09944 1.24218148,0.63024 2.87484815,0.63744 C7.09544074,0.65544 11.3171815,0.64344 15.5389222,0.64344" id="Fill-3" fill="#0E4980" mask="url(#mask-2)"></path>
                </g>
                <path d="M19.550933,15.019519 C22.4227501,15.0183068 25.2957192,15.0619471 28.1663844,15.0013355 C29.7791177,14.9661809 30.8988153,15.6219974 30.9944274,17.3300299 C31.0946472,19.1071595 29.8286516,19.9242027 28.3610643,19.9435983 C22.3801279,20.0223933 16.3968875,20.0151199 10.4136471,19.9435983 C9.0059614,19.9278393 7.95538088,19.1338285 8.00145897,17.4294328 C8.05099292,15.6147241 9.09696563,14.9940622 10.6958755,15.0110334 C13.6471773,15.0413391 16.5984792,15.019519 19.550933,15.019519" id="Fill-6" fill="#0E4980"></path>
                <path d="M23.4757798,26.0148455 C25.1795837,26.0137879 26.8845603,26.0550352 28.586019,26.002154 C30.1244848,25.9535032 30.9535208,26.7329728 30.99808,27.9354924 C31.0426393,29.1263781 30.3121025,30.0052644 28.7525298,29.9999763 C25.2628391,29.9851695 21.7754937,30.0052644 18.2869756,29.9904576 C16.82942,29.9841119 15.979277,29.3114624 16.000384,27.9714516 C16.0203184,26.6187493 16.9279194,26.0233065 18.3655406,26.0159031 C20.0693445,26.0084997 21.7731485,26.0148455 23.4757798,26.0148455" id="Fill-8" fill="#0E4980"></path>
                <path d="M69.9405154,0.00699895783 C78.4374986,0.00699895783 86.9344818,-0.00809208338 95.431465,0.0116423551 C100.175327,0.0232508484 101.99054,1.89337911 101.99398,6.724834 C102.002007,17.6101181 102.002007,28.4942414 101.99398,39.3783646 C101.99054,43.88246 99.9368155,45.9882407 95.5037066,45.9917232 C78.5097402,46.0033317 61.514627,46.0021709 44.5206606,45.9917232 C40.242355,45.9882407 38.0452943,43.8720124 38.0303873,39.5954435 C37.9902531,28.4478074 37.9891064,17.2990105 38.031534,6.15253528 C38.0475877,2.16269615 40.2102477,0.0348593416 44.1892668,0.0197683004 C52.7722519,-0.0162180286 61.3575303,0.00815980716 69.9405154,0.00699895783 Z" id="Stroke-10" stroke="#0E4980" stroke-width="4"></path>
            </g>
        </g>
    </g>
</svg>