<svg width="41px" height="40px" viewBox="0 0 41 40" version="1.1" xmlns="http://www.w3.org/2000/svg" xmlns:xlink="http://www.w3.org/1999/xlink">
    <!-- Generator: Sketch 49.3 (51167) - http://www.bohemiancoding.com/sketch -->
    <title>Mask</title>
    <desc>Created with Sketch.</desc>
    <defs>
        <path d="M159.927746,19.1535585 L155.311777,19.1535585 L155.311777,17.4921351 C155.311777,16.1629964 154.111626,15 152.542196,15 C151.065087,15 149.772616,16.0799252 149.772616,17.4921351 L149.772616,19.1535585 L136.847905,19.1535585 L136.847905,17.4921351 C136.847905,16.1629964 135.647753,15 134.078324,15 C132.601214,15 131.308743,16.0799252 131.308743,17.4921351 L131.308743,19.1535585 L126.692775,19.1535585 C124.661749,19.1535585 123,20.6488395 123,22.4764053 L123,24.5531845 C123,25.2177539 123.646236,25.799252 124.38479,25.799252 L162.23573,25.799252 C162.974285,25.799252 163.62052,25.2177539 163.62052,24.5531845 L163.62052,22.4764053 C163.62052,20.6488395 161.958772,19.1535585 159.927746,19.1535585 Z M162.23573,29.9528105 L124.38479,29.9528105 C123.646236,29.9528105 123,30.5343087 123,31.1988781 L123,51.5513146 C123,53.3788803 124.661749,54.8741614 126.692775,54.8741614 L159.927746,54.8741614 C161.958772,54.8741614 163.62052,53.3788803 163.62052,51.5513146 L163.62052,31.1988781 C163.62052,30.5343087 162.974285,29.9528105 162.23573,29.9528105 Z M149.587977,37.8445716 L143.771857,48.9761083 C143.494899,49.5576065 142.848663,49.8898912 142.110108,49.8898912 C141.094595,49.8898912 140.35604,49.1422507 140.35604,48.3946102 C140.35604,48.2284678 140.44836,47.9792543 140.540679,47.7300408 L145.433605,38.2599275 L138.417334,38.2599275 C137.58646,38.2599275 136.847905,37.7615005 136.847905,37.0138599 C136.847905,36.3492906 137.58646,35.7677924 138.417334,35.7677924 L148.018548,35.7677924 C148.941741,35.7677924 149.772616,36.4323617 149.772616,37.2630734 C149.772616,37.5122869 149.680296,37.6784293 149.587977,37.8445716 L149.587977,37.8445716 Z" id="path-1"></path>
    </defs>
    <g id="Final-Page-Designs" stroke="none" stroke-width="1" fill="none" fill-rule="evenodd">
        <g id="Homepage" transform="translate(-695.000000, -644.000000)">
            <g id="Group-3" transform="translate(342.000000, 629.000000)">
                <g id="icons/utility/weeklyview-copy" transform="translate(230.000000, 0.000000)">
                    <mask id="mask-2" fill="white">
                        <use xlink:href="#path-1"></use>
                    </mask>
                    <use id="Mask" fill="#FFFFFF" xlink:href="#path-1"></use>
                </g>
            </g>
        </g>
    </g>
</svg>