<!DOCTYPE svg PUBLIC "-//W3C//DTD SVG 20010904//EN"
 "http://www.w3.org/TR/2001/REC-SVG-20010904/DTD/svg10.dtd">
<svg version="1.0" xmlns="http://www.w3.org/2000/svg"
 width="48px" height="48px" viewBox="0 0 626.000000 626.000000"
 preserveAspectRatio="xMidYMid meet">
<g transform="translate(0.000000,626.000000) scale(0.100000,-0.100000)"
fill="#000000" stroke="none">
<path d="M2945 6254 c-382 -53 -582 -109 -836 -233 -701 -344 -1176 -991
-1296 -1766 -25 -163 -25 -522 0 -680 42 -264 125 -520 240 -736 175 -331 403
-597 700 -818 123 -90 153 -135 181 -273 13 -64 16 -156 16 -525 0 -499 5
-547 61 -634 65 -102 53 -95 779 -461 156 -79 232 -112 278 -120 117 -21 141
-12 629 233 245 123 460 237 483 256 50 43 91 103 115 168 17 45 19 100 26
545 7 547 8 553 74 678 44 84 106 150 197 208 96 62 329 296 411 414 127 182
220 343 277 480 125 300 177 539 187 865 4 159 2 216 -16 350 -44 333 -143
624 -307 903 -59 100 -194 285 -261 358 -21 23 -54 59 -74 80 -55 61 -186 175
-279 245 -304 227 -657 376 -1045 439 -124 21 -459 35 -540 24z m490 -409
c264 -47 477 -124 695 -253 136 -81 249 -170 381 -302 249 -248 411 -530 508
-881 34 -123 61 -345 61 -495 0 -159 -29 -380 -66 -498 -13 -44 -24 -83 -24
-89 0 -20 -94 -246 -132 -317 -131 -243 -355 -509 -518 -614 -58 -38 -161
-136 -215 -206 -23 -30 -61 -92 -84 -137 -23 -46 -47 -83 -54 -83 -12 0 -1681
0 -1704 0 -6 0 -18 19 -26 43 -18 54 -78 148 -131 205 -22 24 -93 83 -156 130
-501 375 -790 947 -790 1564 0 528 198 1009 569 1378 219 219 419 348 708 459
133 50 358 101 513 115 90 8 377 -4 465 -19z m490 -4465 l0 -195 -790 0 -790
0 -3 185 c-1 101 0 190 2 197 4 11 158 13 793 11 l788 -3 0 -195z m-16 -594
c-2 -2 -178 -92 -392 -200 l-387 -197 -193 99 c-105 55 -255 131 -332 170 -77
39 -165 84 -195 101 l-55 31 779 0 c429 0 777 -2 775 -4z"/>
<path d="M3245 5457 c-196 -92 -124 -366 95 -367 85 0 260 -44 355 -89 217
-102 400 -273 498 -468 65 -128 91 -225 106 -394 11 -115 34 -168 92 -206 108
-71 253 -18 291 109 9 31 9 71 0 182 -37 445 -241 796 -597 1028 -192 125
-396 195 -632 218 -146 14 -151 13 -208 -13z"/>
</g>
</svg>
