<svg xmlns="http://www.w3.org/2000/svg" viewBox="0 0 165.89 68.26"><defs><style>.cls-1{fill:#fff;}</style></defs><g id="Layer_2" data-name="Layer 2"><g id="Layer_1-2" data-name="Layer 1"><path id="Fill_6" data-name="Fill 6" class="cls-1" d="M132.3,23.16l-4,13.42-11.73.05L126,5.75l11.58,0-4,13.39L152.91,5.64l13-.06L143.2,21.12l13.2,15.35-13,.05Z"/><g id="Page_1_Copy_4" data-name="Page 1 Copy 4"><path id="Fill_1" data-name="Fill 1" class="cls-1" d="M149.64,41.28l-2.22,7.31-10.15,0,2.22-7.31-5.05,0L129,59.26l5.05,0,2.22-7.31,10.15,0L144.2,59.2l5.35,0L155,41.26Z"/><path id="Fill_2" data-name="Fill 2" class="cls-1" d="M67.29,41.35,66,44.89l8.62,0-4.43,14.4,5,0,4.43-14.4,8.3,0L89,41.26Z"/><path id="Fill_3" data-name="Fill 3" class="cls-1" d="M92.06,55.69l1.14-3.76,12.76,0,1-3.3-12.76.05,1.15-3.77,13.51-.06L110,41.26l-18.49.07L86,59.26l18.34-.08,1.12-3.54Z"/><g id="Group_27" data-name="Group 27"><path id="Fill_4" data-name="Fill 4" class="cls-1" d="M115.71,55.24c-1,0-1.53-.19-1.49-.55a.51.51,0,0,1,0-.17l2.81-9.32c.07-.21.26-.87,2.13-.87l11.63,0,1.11-3.57-12.62,0c-3.85,0-6.22,1.39-7,4.07l-3,9.81a4.14,4.14,0,0,0-.19,1c-.18,2.13,1.48,3.2,4.93,3.19l12.27-.06,1.11-3.56Z"/><path id="Fill_9" data-name="Fill 9" class="cls-1" d="M95.19,30.92q-4.75,0-4.8-1.43a.9.9,0,0,1,.07-.37l4.75-15.59c.37-1.25,2.37-1.88,6-1.89l18-.07L121,5.77l-19.86.08c-9.85,0-15.47,2.28-16.85,6.76L79,30a5,5,0,0,0-.24,1.63q.15,5.13,13.11,5.06l19.82-.08,1.75-5.8Z"/><path id="Fill_11" data-name="Fill 11" class="cls-1" d="M69.66,6,64,24.68,52.46,6.05,41,6.09,31.56,37l11.32,0,5.64-18.69L59.68,36.86l11.86,0,5.25-17.14A43,43,0,0,0,71.46,6Z"/><path id="Fill_13" data-name="Fill 13" class="cls-1" d="M81,5.93,73.77,6a44.14,44.14,0,0,1,4.17,10Z"/><path id="Fill_15" data-name="Fill 15" class="cls-1" d="M25,49.75a13.9,13.9,0,0,1-11.26-8.57l-4.22,0A17,17,0,0,0,23.62,53.36l.35,0c9.61,1.19,19.57-4.22,23.54-12.35h-4.1A19.25,19.25,0,0,1,25,49.75"/><path id="Fill_17" data-name="Fill 17" class="cls-1" d="M57.79,41C52.87,54.68,37.92,64.3,23.65,62.86l-1.59,5.21C39.51,69.93,57.87,57.91,63.37,41Z"/><path id="Fill_19" data-name="Fill 19" class="cls-1" d="M23.11,55.94a20.1,20.1,0,0,1-14.44-9c-3.46-5.43-4.16-12.28-2-19.27C11,14,25.17,4.08,38.64,5.25L40.2.14C23.88-1.42,6.64,10.42,1.49,26.9-1.13,35.28-.28,43.49,3.88,50A24.53,24.53,0,0,0,21.52,61h.05l1.56-5.1h0"/><path id="Fill_21" data-name="Fill 21" class="cls-1" d="M16.21,30.33A14,14,0,0,0,17.4,42.06a12,12,0,0,0,8.33,5.37l1.12-3.65a8.79,8.79,0,0,1-6-3.94,10.6,10.6,0,0,1-.89-9C21.86,24.7,28,20.2,34,20.49l1.12-3.66c-8-.56-16.33,5.34-18.88,13.5"/><path id="Fill_23" data-name="Fill 23" class="cls-1" d="M51.13,39C47.85,49.47,36.57,57,25.72,56.11L24.6,59.76C37.5,60.93,51,52,54.86,39.49a23.91,23.91,0,0,0,.66-2.62H51.66A19.21,19.21,0,0,1,51.13,39"/><path id="Fill_25" data-name="Fill 25" class="cls-1" d="M159.72,44.92h0a2.26,2.26,0,0,1-1.07-.29,2.05,2.05,0,0,1-.8-.8,2.38,2.38,0,0,1-.29-1.07,2.23,2.23,0,0,1,.29-1.1,2.05,2.05,0,0,1,.8-.8,2.18,2.18,0,0,1,1.06-.28h0a2.16,2.16,0,0,1,1.87,3.24,2,2,0,0,1-.79.8A2.27,2.27,0,0,1,159.72,44.92Zm0-3.92a1.73,1.73,0,0,0-.86.23,1.67,1.67,0,0,0-.64.65,1.75,1.75,0,0,0,1.5,2.62h0a1.85,1.85,0,0,0,.86-.24,1.67,1.67,0,0,0,.64-.65,1.74,1.74,0,0,0,0-1.74,1.57,1.57,0,0,0-.65-.65A1.79,1.79,0,0,0,159.71,41Zm-.5,2.91h-.47v-2.3h1.2a1.12,1.12,0,0,1,.36.09.56.56,0,0,1,.21.22.63.63,0,0,1,.09.33.67.67,0,0,1-.16.43.77.77,0,0,1-.46.22l.17.08c.05.06.11.12.15.18s.08.12.17.28l.27.46h-.57l-.19-.37a1.43,1.43,0,0,0-.33-.47.46.46,0,0,0-.32-.1h-.12v.94Zm0-1.94v.63h.19a2.26,2.26,0,0,0,.45,0,.29.29,0,0,0,.19-.11.3.3,0,0,0,0-.39.41.41,0,0,0-.21-.1h-.61Z"/></g></g><g id="Group_8-2" data-name="Group 8-2"><path id="Fill_6-2" data-name="Fill 6" class="cls-1" d="M132.3,23.16l-4,13.42-11.73.05L126,5.75l11.58,0-4,13.39L152.91,5.64l13-.06L143.2,21.12l13.2,15.35-13,.05Z"/></g></g></g></svg>