<svg width="40px" height="40px" viewBox="0 0 40 40" version="1.1" xmlns="http://www.w3.org/2000/svg" xmlns:xlink="http://www.w3.org/1999/xlink">
    <!-- Generator: Sketch 49.3 (51167) - http://www.bohemiancoding.com/sketch -->
    <title>Shape</title>
    <desc>Created with Sketch.</desc>
    <defs></defs>
    <g id="Final-Page-Designs" stroke="none" stroke-width="1" fill="none" fill-rule="evenodd">
        <g id="Homepage" transform="translate(-446.000000, -644.000000)" fill="#FFFFFF" fill-rule="nonzero">
            <g id="Group-3" transform="translate(342.000000, 629.000000)">
                <path d="M124,15 C118.753333,15 114,19.255 114,24.5033333 C114,32.3066667 121.971667,33.1316667 124,45 C126.028333,33.1316667 134,32.3066667 134,24.5033333 C134,19.255 129.248333,15 124,15 Z M124,28.3333333 C122.158333,28.3333333 120.666667,26.8416667 120.666667,25 C120.666667,23.1583333 122.158333,21.6666667 124,21.6666667 C125.841667,21.6666667 127.333333,23.1583333 127.333333,25 C127.333333,26.8416667 125.841667,28.3333333 124,28.3333333 Z M144,55 L132.821667,50.955 L124,55 L114.698333,50.955 L104,55 L110.666667,40 L117.266667,37.36 C117.9,38.22 118.501667,39.16 119.035,40.2416667 L113.163333,42.5916667 L110.288333,49.0583333 L114.741667,47.375 L117.251667,42.8966667 L116.193333,47.97 L123.175,50.9516667 L124,47.5833333 L124.775,50.9566667 L131.691667,47.8066667 L130.661667,42.7516667 L133.281667,47.5783333 L137.835,49.2266667 L134.936667,42.5966667 L128.968333,40.2383333 C129.5,39.155 130.103333,38.2133333 130.738333,37.3533333 L137.44,40 L144,55 Z" id="Shape"></path>
            </g>
        </g>
    </g>
</svg>