<svg id="Layer_1" width="41px" height="40px" data-name="Layer 1" xmlns="http://www.w3.org/2000/svg" viewBox="0 0 44 41"><defs><style>.cls-1{fill:#fff;}</style></defs><title>Phone Icon</title><g id="Final-Page-Designs"><g id="Homepage"><g id="Group-3"><g id="icons_utility_call-copy" data-name="icons/utility/call-copy"><g id="Phone-Icon"><path id="path-1" class="cls-1" d="M36.89,26.32a3.74,3.74,0,0,0-4.36-.09L27.8,29.46a1.5,1.5,0,0,1-1.91-.17l-7.08-5.95-6.36-6.63a1.33,1.33,0,0,1-.18-1.78l3.45-4.42a3.15,3.15,0,0,0-.09-4.08L11.18,1.25A3.8,3.8,0,0,0,5.81,1L1.09,5.41A3.47,3.47,0,0,0,0,8,34,34,0,0,0,10.81,30.65,38.66,38.66,0,0,0,35.07,40.76a3.62,3.62,0,0,0,2.73-1l4.72-4.42a2.91,2.91,0,0,0-.09-4.84Z"/></g></g></g></g></g></svg>